<svg width="101" height="54" viewBox="0 0 101 54" fill="none" xmlns="http://www.w3.org/2000/svg">
<g filter="url(#filter0_d_564_383)">
<rect x="4" width="93" height="46" rx="10" fill="#4A4949"/>
</g>
<path d="M21.5596 33.0107C21.0509 29.5935 20.5995 26.5551 20.1997 23.8588C18.0476 9.34381 17.3916 4.74513 17.3489 4.35445L13.3856 29.8212" stroke="white" stroke-width="4"/>
<path d="M17.0933 12.8391L23.8039 31.933H22.3298" stroke="white"/>
<path d="M17.0929 12.8391L11.6519 30.143H12.5351H13.2064" stroke="white"/>
<path d="M14.0669 27.394L20.7365 28.627" stroke="white"/>
<path d="M21.8086 32.5295H23.985" stroke="white"/>
<path d="M19.9087 25.6557L14.6492 25.0298L14.1558 27.7257L19.9905 28.3411" stroke="white"/>
<path d="M20.3579 22.3861L17.0933 12.2424" stroke="white" stroke-width="4"/>
<path d="M14.4515 25.3694L19.5765 25.9483L20.5392 28.3528L19.803 28.2356L13.8286 27.2841" stroke="white" stroke-width="4"/>
<path d="M21.4458 31.9329H23.6222" stroke="white" stroke-width="4"/>
<path d="M23.6136 22.2969C23.7523 24.5008 30.2742 35.7595 33.6204 32.7191C36.069 30.4942 34.9525 24.8966 33.6799 21.8449" stroke="white" stroke-width="3" stroke-linecap="round"/>
<path d="M40.821 22.5877C40.6929 21.8257 39.5693 22.8214 39.3737 23.122C38.6426 24.2452 38.3138 24.1479 38.2035 25.6437C38.115 26.8445 37.834 27.936 37.8926 29.1392C37.9778 30.8891 38.1058 31.0061 39.5015 31.9229C41.445 33.1996 43.315 33.5921 45.6184 33.4263C46.7618 33.344 48.895 32.277 49.3562 31.1498" stroke="white" stroke-width="3" stroke-linecap="round"/>
<path d="M52.2314 12.2043C52.3229 14.6868 52.0022 17.2742 51.8847 19.687C51.8236 20.9424 51.8487 22.2015 51.8022 23.4567C51.722 25.6244 51.5391 27.7993 51.8139 30.0092C52.0482 31.8938 52.8301 32.3457 53.4497 33.0305" stroke="white" stroke-width="3" stroke-linecap="round"/>
<path d="M55.1156 22.2107C54.0132 20.3931 51.998 20.6949 50.5233 20.4445" stroke="white" stroke-width="3" stroke-linecap="round"/>
<path d="M59.1646 21.2266C58.9304 25.2237 58.5442 29.3715 59.4173 33.2083" stroke="white" stroke-width="3" stroke-linecap="round"/>
<path d="M57.7138 14.1993C57.7138 13.1554 60.798 15.4642 59.095 15.9643C59.2612 16.5309 58.9226 16.9148 57.8702 16.9148C57.4037 16.9148 57.7138 15.1193 57.7138 14.1993Z" fill="#4A4949"/>
<path d="M58.2767 16.0573C61.5708 16.0573 57.7138 13.0319 57.7138 14.1993C57.7138 15.1193 57.4037 16.9148 57.8702 16.9148C59.5637 16.9148 59.4088 15.9208 58.2767 14.771" stroke="white" stroke-width="3" stroke-linecap="round"/>
<path d="M73.2686 23.0093C71.3738 21.6163 66.8917 19.8388 65.2363 23.1856C64.5769 24.5186 65.543 27.2946 65.9856 28.3636C66.6474 29.9624 67.0558 31.7619 68.2934 32.5281C69.4226 33.2272 70.8194 33.7179 72.0548 33.7179C73.2334 33.7179 74.4705 33.9084 75.6364 33.7179C76.3696 33.5981 76.2637 28.9659 76.2358 27.8568C76.1778 25.5559 73.534 23.4059 72.1896 23.4059" stroke="white" stroke-width="3" stroke-linecap="round"/>
<path d="M88.0601 32.6486C87.8004 31.6387 88.0153 30.5534 87.9139 29.514C87.9651 29.6536 88.0186 29.7796 88.075 29.8881C89.0135 31.6928 88.9978 32.7333 88.9978 35.1642V36.8784C88.9978 35.8429 88.462 35.3156 88.462 34.3182C88.462 33.6832 88.2084 33.2252 88.0601 32.6486Z" fill="#4A4949"/>
<path d="M77.209 26.482C77.5051 27.44 78.2919 31.5462 79.0249 32.1366C79.5896 32.5913 78.9242 30.213 78.757 29.287C78.4697 27.6957 77.8133 26.3597 77.4174 24.8791C76.6023 21.8316 78.5757 21.2727 80.0371 21.2727C83.6247 21.2727 87.3245 23.7829 87.9112 29.4874C88.019 30.5348 87.7982 31.6301 88.0601 32.6486C88.2084 33.2252 88.462 33.6832 88.462 34.3182C88.462 35.3156 88.9978 35.8429 88.9978 36.8784C88.9978 38.5499 88.9978 35.5694 88.9978 35.1642C88.9978 32.7333 89.0135 31.6928 88.075 29.8881C87.4901 28.7635 87.2203 25.7538 86.5865 25.2799" stroke="white" stroke-width="3" stroke-linecap="round"/>
<defs>
<filter id="filter0_d_564_383" x="0" y="0" width="101" height="54" filterUnits="userSpaceOnUse" color-interpolation-filters="sRGB">
<feFlood flood-opacity="0" result="BackgroundImageFix"/>
<feColorMatrix in="SourceAlpha" type="matrix" values="0 0 0 0 0 0 0 0 0 0 0 0 0 0 0 0 0 0 127 0" result="hardAlpha"/>
<feOffset dy="4"/>
<feGaussianBlur stdDeviation="2"/>
<feComposite in2="hardAlpha" operator="out"/>
<feColorMatrix type="matrix" values="0 0 0 0 0 0 0 0 0 0 0 0 0 0 0 0 0 0 0.25 0"/>
<feBlend mode="normal" in2="BackgroundImageFix" result="effect1_dropShadow_564_383"/>
<feBlend mode="normal" in="SourceGraphic" in2="effect1_dropShadow_564_383" result="shape"/>
</filter>
</defs>
</svg>
