<svg width="196" height="118" viewBox="0 0 196 118" fill="none" xmlns="http://www.w3.org/2000/svg">
<g filter="url(#filter0_d_563_179)">
<rect x="4" width="188" height="110" rx="55" fill="#496E76"/>
</g>
<path d="M47.2271 57.8059C46.1886 52.0789 45.267 46.9867 44.4508 42.4679C40.0571 18.1419 38.7177 10.4348 38.6305 9.78008L30.5392 52.4605" stroke="white" stroke-width="4"/>
<path d="M38.1084 23.9998L51.8087 55.9998H48.7993" stroke="white"/>
<path d="M38.1083 23.9998L27 52.9998H28.8033H30.1738" stroke="white"/>
<path d="M31.9302 48.3933L45.5467 50.4597" stroke="white"/>
<path d="M47.7356 56.9998H52.1789" stroke="white"/>
<path d="M43.8571 45.4792L33.1194 44.4302L32.1121 48.9483L44.0242 49.9798" stroke="white"/>
<path d="M44.7734 39.9998L38.1084 22.9998" stroke="white" stroke-width="4"/>
<path d="M32.7151 44.9998L43.1782 45.9699L45.1436 49.9998L43.6406 49.8033L31.4434 48.2087" stroke="white" stroke-width="4"/>
<path d="M46.9949 55.9998H51.4382" stroke="white" stroke-width="4"/>
<path d="M52.1466 35.7437C51.495 39.3738 59.5236 61.9241 67.3335 59.354C73.0486 57.4733 73.2104 47.7269 72.0015 41.9558" stroke="white" stroke-width="3" stroke-linecap="round"/>
<path d="M86.8544 43.417C87.0643 42.1272 84.3842 42.5613 83.8426 42.8315C81.8189 43.8411 81.2635 43.3737 80.1772 45.555C79.3052 47.3061 78.139 48.7035 77.5398 50.6009C76.6682 53.3605 76.8378 53.6635 78.899 56.4189C81.7691 60.2558 85.023 62.6689 89.413 64.6479C91.5923 65.6303 96.1958 66.0658 97.719 64.7886" stroke="white" stroke-width="3" stroke-linecap="round"/>
<path d="M103.882 31.405C104.068 35.5654 103.414 39.9018 103.174 43.9454C103.049 46.0494 103.1 48.1596 103.005 50.2632C102.842 53.896 102.468 57.5411 103.029 61.2446C103.508 64.4031 105.104 65.1604 106.369 66.3081" stroke="white" stroke-width="3" stroke-linecap="round"/>
<path d="M109.771 48.175C107.52 45.1289 103.406 45.6345 100.395 45.2149" stroke="white" stroke-width="3" stroke-linecap="round"/>
<path d="M119.774 49.2251C119.296 55.9241 118.508 62.8754 120.29 69.3057" stroke="white" stroke-width="3" stroke-linecap="round"/>
<path d="M117.962 40.5626C124.688 40.5626 116.813 35.4923 116.813 37.4488C116.813 38.9907 116.18 41.9998 117.132 41.9998C120.59 41.9998 120.274 40.3338 117.962 38.4069" stroke="white" stroke-width="3" stroke-linecap="round"/>
<path d="M139.016 56.911C135.148 54.5765 125.997 51.5974 122.618 57.2064C121.271 59.4405 123.244 64.0928 124.147 65.8845C125.499 68.5639 126.332 71.5797 128.859 72.8638C131.164 74.0354 134.016 74.8579 136.538 74.8579C138.944 74.8579 141.47 75.1771 143.85 74.8579C145.347 74.6571 145.131 66.8939 145.074 65.0351C144.956 61.1788 139.558 57.5757 136.814 57.5757" stroke="white" stroke-width="3" stroke-linecap="round"/>
<path d="M149.932 62.7302C150.536 64.3356 152.143 71.2174 153.639 72.2068C154.792 72.9689 153.434 68.9831 153.092 67.4312C152.506 64.7642 151.166 62.5251 150.357 60.0439C148.693 54.9365 152.722 53.9998 155.706 53.9998C163.03 53.9998 170.583 58.2067 171.781 67.7669C172.001 69.5224 171.551 71.358 172.085 73.0649C172.388 74.0312 172.906 74.7988 172.906 75.8631C172.906 77.5346 174 78.4183 174 80.1537C174 82.955 174 77.9599 174 77.2808C174 73.2068 174.032 71.4631 172.116 68.4385C170.922 66.5537 170.371 61.5097 169.077 60.7155" stroke="white" stroke-width="3" stroke-linecap="round"/>
<defs>
<filter id="filter0_d_563_179" x="0" y="0" width="196" height="118" filterUnits="userSpaceOnUse" color-interpolation-filters="sRGB">
<feFlood flood-opacity="0" result="BackgroundImageFix"/>
<feColorMatrix in="SourceAlpha" type="matrix" values="0 0 0 0 0 0 0 0 0 0 0 0 0 0 0 0 0 0 127 0" result="hardAlpha"/>
<feOffset dy="4"/>
<feGaussianBlur stdDeviation="2"/>
<feComposite in2="hardAlpha" operator="out"/>
<feColorMatrix type="matrix" values="0 0 0 0 0 0 0 0 0 0 0 0 0 0 0 0 0 0 0.25 0"/>
<feBlend mode="normal" in2="BackgroundImageFix" result="effect1_dropShadow_563_179"/>
<feBlend mode="normal" in="SourceGraphic" in2="effect1_dropShadow_563_179" result="shape"/>
</filter>
</defs>
</svg>
