<svg width="310" height="160" viewBox="0 0 310 160" fill="none" xmlns="http://www.w3.org/2000/svg">
<g filter="url(#filter0_d_563_179)">
<rect x="4" width="302" height="152" rx="30" fill="black"/>
</g>
<path d="M73.4392 79.8774C71.771 71.9638 70.2906 64.9272 68.9795 58.6831C61.9216 25.069 59.77 14.4192 59.6299 13.5145L46.6321 72.491" stroke="white" stroke-width="4"/>
<path d="M58.7913 33.1633L80.7991 77.3815H75.965" stroke="white"/>
<path d="M58.791 33.1633L40.9468 73.2361H43.8436H46.0451" stroke="white"/>
<path d="M48.8667 66.8708L70.7401 69.7262" stroke="white"/>
<path d="M74.2561 78.7634H81.3938" stroke="white"/>
<path d="M68.0258 62.8441L50.7769 61.3945L49.1588 67.6377L68.2942 69.063" stroke="white"/>
<path d="M69.4978 55.2724L58.7913 31.7815" stroke="white" stroke-width="4"/>
<path d="M50.1274 62.1814L66.9351 63.522L70.0923 69.0905L67.678 68.819L48.0845 66.6156" stroke="white" stroke-width="4"/>
<path d="M73.0664 77.3818H80.2041" stroke="white" stroke-width="4"/>
<path d="M81.342 49.3913C80.2952 54.4073 93.1923 85.5678 105.738 82.0164C114.919 79.4175 115.179 65.9499 113.237 57.9752" stroke="white" stroke-width="3" stroke-linecap="round"/>
<path d="M137.096 59.9943C137.433 58.212 133.128 58.8119 132.258 59.1853C129.007 60.5804 128.115 59.9345 126.37 62.9487C124.969 65.3683 123.096 67.2993 122.133 69.9212C120.733 73.7345 121.005 74.1531 124.316 77.9607C128.927 83.2625 134.154 86.5969 141.206 89.3316C144.707 90.6892 152.102 91.2909 154.548 89.5261" stroke="white" stroke-width="3" stroke-linecap="round"/>
<path d="M164.448 43.396C164.748 49.1449 163.697 55.137 163.311 60.7245C163.111 63.6318 163.193 66.5478 163.041 69.4545C162.778 74.4744 162.178 79.5112 163.079 84.6288C163.847 88.9934 166.412 90.0398 168.444 91.6257" stroke="white" stroke-width="3" stroke-linecap="round"/>
<path d="M173.908 66.569C170.293 62.3598 163.684 63.0586 158.847 62.4787" stroke="white" stroke-width="3" stroke-linecap="round"/>
<path d="M189.978 68.02C189.21 77.2768 187.944 86.8823 190.807 95.7677" stroke="white" stroke-width="3" stroke-linecap="round"/>
<path d="M185.221 51.7475C185.221 49.3299 195.336 54.6767 189.751 55.8348C190.296 57.147 189.186 58.036 185.734 58.036C184.204 58.036 185.221 53.878 185.221 51.7475Z" fill="black"/>
<path d="M187.067 56.0502C197.87 56.0502 185.221 49.0439 185.221 51.7475C185.221 53.878 184.204 58.036 185.734 58.036C191.288 58.036 190.78 55.734 187.067 53.0714" stroke="white" stroke-width="3" stroke-linecap="round"/>
<path d="M220.888 78.6408C214.674 75.4148 199.974 71.2983 194.545 79.049C192.383 82.1361 195.551 88.5647 197.003 91.0404C199.173 94.7429 200.512 98.9102 204.571 100.685C208.274 102.304 212.856 103.44 216.907 103.44C220.772 103.44 224.829 103.881 228.653 103.44C231.058 103.163 230.711 92.4352 230.619 89.8668C230.429 84.5381 221.758 79.5593 217.349 79.5593" stroke="white" stroke-width="3" stroke-linecap="round"/>
<path d="M274.01 100.962C273.158 98.6238 273.863 96.1103 273.53 93.7033C273.698 94.0266 273.873 94.3184 274.058 94.5697C277.136 98.7491 277.085 101.159 277.085 106.788V110.758C277.085 108.36 275.328 107.139 275.328 104.829C275.328 103.358 274.496 102.298 274.01 100.962Z" fill="black"/>
<path d="M238.423 86.6818C239.394 88.9002 241.974 98.4096 244.378 99.7767C246.23 100.83 244.048 95.3222 243.499 93.1777C242.557 89.4925 240.405 86.3984 239.106 82.9698C236.433 75.9123 242.905 74.6179 247.698 74.6179C259.464 74.6179 271.597 80.4311 273.521 93.6417C273.875 96.0674 273.151 98.6038 274.01 100.962C274.496 102.298 275.328 103.358 275.328 104.829C275.328 107.139 277.085 108.36 277.085 110.758C277.085 114.629 277.085 107.727 277.085 106.788C277.085 101.159 277.136 98.7491 274.058 94.5697C272.14 91.9652 271.255 84.9954 269.177 83.8978" stroke="white" stroke-width="3" stroke-linecap="round"/>
<defs>
<filter id="filter0_d_563_179" x="0" y="0" width="310" height="160" filterUnits="userSpaceOnUse" color-interpolation-filters="sRGB">
<feFlood flood-opacity="0" result="BackgroundImageFix"/>
<feColorMatrix in="SourceAlpha" type="matrix" values="0 0 0 0 0 0 0 0 0 0 0 0 0 0 0 0 0 0 127 0" result="hardAlpha"/>
<feOffset dy="4"/>
<feGaussianBlur stdDeviation="2"/>
<feComposite in2="hardAlpha" operator="out"/>
<feColorMatrix type="matrix" values="0 0 0 0 0 0 0 0 0 0 0 0 0 0 0 0 0 0 0.25 0"/>
<feBlend mode="normal" in2="BackgroundImageFix" result="effect1_dropShadow_563_179"/>
<feBlend mode="normal" in="SourceGraphic" in2="effect1_dropShadow_563_179" result="shape"/>
</filter>
</defs>
</svg>
