<svg width="313" height="160" viewBox="0 0 313 160" fill="none" xmlns="http://www.w3.org/2000/svg">
<g filter="url(#filter0_d_564_182)">
<rect x="4" width="305" height="152" rx="30" fill="black"/>
</g>
<path d="M62.4924 100.184C60.8242 92.2699 59.3438 85.2334 58.0328 78.9893C50.9748 45.3751 48.8232 34.7254 48.6831 33.8206L35.6854 92.7972" stroke="white" stroke-width="4"/>
<path d="M47.8445 53.4695L69.8523 97.6877H65.0182" stroke="white"/>
<path d="M47.8442 53.4695L30 93.5422H32.8968H35.0983" stroke="white"/>
<path d="M37.9199 87.177L59.7933 90.0324" stroke="white"/>
<path d="M63.3093 99.0696H70.447" stroke="white"/>
<path d="M57.079 83.1502L39.8301 81.7006L38.212 87.9439L57.3474 89.3692" stroke="white"/>
<path d="M58.551 75.5786L47.8445 52.0876" stroke="white" stroke-width="4"/>
<path d="M39.1806 82.4875L55.9883 83.8281L59.1455 89.3966L56.7312 89.1251L37.1377 86.9217" stroke="white" stroke-width="4"/>
<path d="M62.1196 97.688H69.2573" stroke="white" stroke-width="4"/>
<path d="M69.2292 75.372C69.684 80.4759 91.0731 106.549 102.047 99.508C110.078 94.3554 106.416 81.3925 102.242 74.3252" stroke="white" stroke-width="3" stroke-linecap="round"/>
<path d="M125.661 76.0457C125.241 74.2811 121.556 76.587 120.914 77.2831C118.517 79.8843 117.438 79.659 117.077 83.1231C116.786 85.9038 115.865 88.4315 116.057 91.2179C116.336 95.2704 116.756 95.5414 121.333 97.6646C127.707 100.621 133.84 101.53 141.394 101.146C145.144 100.955 152.14 98.4845 153.653 95.8742" stroke="white" stroke-width="3" stroke-linecap="round"/>
<path d="M163.083 52C163.382 57.7489 162.331 63.741 161.945 69.3285C161.745 72.2358 161.827 75.1518 161.675 78.0585C161.412 83.0784 160.812 88.1152 161.713 93.2328C162.482 97.5974 165.046 98.6438 167.078 100.23" stroke="white" stroke-width="3" stroke-linecap="round"/>
<path d="M172.543 75.173C168.927 70.9638 162.318 71.6626 157.482 71.0827" stroke="white" stroke-width="3" stroke-linecap="round"/>
<path d="M185.82 72.8931C185.052 82.1498 183.786 91.7554 186.649 100.641" stroke="white" stroke-width="3" stroke-linecap="round"/>
<path d="M181.063 56.6205C181.063 54.2029 191.178 59.5497 185.593 60.7079C186.138 62.02 185.028 62.9091 181.576 62.9091C180.046 62.9091 181.063 58.7511 181.063 56.6205Z" fill="black"/>
<path d="M182.909 60.9232C193.712 60.9232 181.063 53.917 181.063 56.6205C181.063 58.7511 180.046 62.9091 181.576 62.9091C187.13 62.9091 186.622 60.607 182.909 57.9444" stroke="white" stroke-width="3" stroke-linecap="round"/>
<path d="M232.076 77.0228C225.862 73.7969 211.162 69.6804 205.733 77.4311C203.571 80.5181 206.739 86.9468 208.191 89.4225C210.361 93.125 211.7 97.2923 215.759 99.0667C219.462 100.686 224.044 101.822 228.095 101.822C231.96 101.822 236.017 102.263 239.841 101.822C242.246 101.545 241.899 90.8173 241.807 88.2489C241.617 82.9202 232.946 77.9413 228.537 77.9413" stroke="white" stroke-width="3" stroke-linecap="round"/>
<path d="M280.587 99.345C279.735 97.0064 280.44 94.4929 280.108 92.0858C280.275 92.4091 280.451 92.701 280.636 92.9522C283.714 97.1317 283.662 99.5412 283.662 105.171V109.14C283.662 106.742 281.905 105.521 281.905 103.212C281.905 101.741 281.073 100.68 280.587 99.345Z" fill="black"/>
<path d="M245 85.0643C245.971 87.2828 248.551 96.7921 250.956 98.1593C252.807 99.2124 250.625 93.7048 250.077 91.5602C249.135 87.875 246.982 84.781 245.683 81.3524C243.01 74.2949 249.482 73.0005 254.275 73.0005C266.041 73.0005 278.174 78.8137 280.099 92.0242C280.452 94.45 279.728 96.9864 280.587 99.345C281.073 100.68 281.905 101.741 281.905 103.212C281.905 105.521 283.662 106.742 283.662 109.14C283.662 113.011 283.662 106.109 283.662 105.171C283.662 99.5412 283.714 97.1317 280.636 92.9522C278.718 90.3478 277.833 83.3779 275.754 82.2804" stroke="white" stroke-width="3" stroke-linecap="round"/>
<defs>
<filter id="filter0_d_564_182" x="0" y="0" width="313" height="160" filterUnits="userSpaceOnUse" color-interpolation-filters="sRGB">
<feFlood flood-opacity="0" result="BackgroundImageFix"/>
<feColorMatrix in="SourceAlpha" type="matrix" values="0 0 0 0 0 0 0 0 0 0 0 0 0 0 0 0 0 0 127 0" result="hardAlpha"/>
<feOffset dy="4"/>
<feGaussianBlur stdDeviation="2"/>
<feComposite in2="hardAlpha" operator="out"/>
<feColorMatrix type="matrix" values="0 0 0 0 0 0 0 0 0 0 0 0 0 0 0 0 0 0 0.25 0"/>
<feBlend mode="normal" in2="BackgroundImageFix" result="effect1_dropShadow_564_182"/>
<feBlend mode="normal" in="SourceGraphic" in2="effect1_dropShadow_564_182" result="shape"/>
</filter>
</defs>
</svg>
